<svg width="236" height="108" viewBox="0 0 236 108" fill="none" xmlns="http://www.w3.org/2000/svg">
<path d="M15.175 78.8L15.295 78.68H19.095H22.895L23.015 78.8C23.095 78.8533 23.1617 78.9467 23.215 79.08L26.575 88.6C28.815 94.8667 29.935 98.0133 29.935 98.04C29.935 98.0667 29.9617 98.0267 30.015 97.92C30.1217 97.5733 30.775 95 31.975 90.2C33.335 84.76 33.9883 81.9467 33.935 81.76C33.935 81.7333 33.895 81.68 33.815 81.6C33.5217 81.1467 32.7083 80.92 31.375 80.92C31.0017 80.92 30.775 80.8267 30.695 80.64C30.6683 80.5333 30.7083 80.2267 30.815 79.72C30.9483 79.2133 31.0683 78.9067 31.175 78.8L31.295 78.68H31.735C33.3083 78.7867 35.3883 78.8133 37.975 78.76L40.295 78.68H40.615L40.735 78.8C40.8417 78.9067 40.895 79 40.895 79.08L40.535 80.68C40.4283 80.84 40.1083 80.92 39.575 80.92C38.695 80.9467 37.9483 81.1067 37.335 81.4C36.935 81.5867 36.6417 81.8533 36.455 82.2C36.375 82.3333 35.375 86.2667 33.455 94C31.4817 101.893 30.495 105.8 30.495 105.72C30.4683 105.773 30.415 105.84 30.335 105.92C30.255 105.973 29.9217 106 29.335 106H28.455L28.335 105.88C28.255 105.827 26.935 102.2 24.375 95C21.655 87.32 20.3217 83.5467 20.375 83.68L20.175 83.12L17.735 92.76C16.135 99.1867 15.335 102.467 15.335 102.6C15.335 102.787 15.3483 102.893 15.375 102.92C15.5883 103.48 16.4417 103.76 17.935 103.76H18.335L18.495 103.88C18.575 103.987 18.615 104.093 18.615 104.2C18.615 104.627 18.4817 105.147 18.215 105.76C18.135 105.92 17.895 105.987 17.495 105.96C17.3883 105.96 17.1883 105.96 16.895 105.96C13.5617 105.853 10.9483 105.867 9.055 106H8.695L8.575 105.88C8.46833 105.773 8.415 105.667 8.415 105.56C8.415 105.133 8.54833 104.613 8.815 104C8.86833 103.84 9.08167 103.76 9.455 103.76C10.655 103.76 11.5617 103.56 12.175 103.16C12.4417 103.027 12.655 102.827 12.815 102.56C12.895 102.427 13.8283 98.8 15.615 91.68C17.375 84.56 18.2417 81 18.215 81L16.575 80.92C15.4283 80.92 14.8017 80.8267 14.695 80.64C14.6683 80.56 14.7083 80.2533 14.815 79.72C14.9483 79.2133 15.0683 78.9067 15.175 78.8ZM57.1416 77.44C57.2216 77.3867 57.5549 77.36 58.1416 77.36C58.7816 77.36 59.1416 77.4267 59.2216 77.56C59.2749 77.6133 59.5282 81.9467 59.9816 90.56C60.4082 99.1467 60.6482 103.467 60.7016 103.52C60.7816 103.6 60.8616 103.64 60.9416 103.64C61.2349 103.72 61.9149 103.76 62.9816 103.76C63.4882 103.76 63.7682 103.787 63.8216 103.84C63.9816 103.893 64.0616 104.013 64.0616 104.2L63.6616 105.76C63.5549 105.92 63.2882 105.987 62.8616 105.96C62.7549 105.96 62.5282 105.96 62.1816 105.96C60.3682 105.853 57.9416 105.84 54.9016 105.92C54.6349 105.947 54.4082 105.96 54.2216 105.96C53.3416 105.987 52.8482 105.92 52.7416 105.76C52.6882 105.68 52.7149 105.373 52.8216 104.84C52.9549 104.28 53.0749 103.947 53.1816 103.84C53.2616 103.787 53.4749 103.76 53.8216 103.76C54.9149 103.76 55.6749 103.653 56.1016 103.44L56.3016 103.36V103.04L56.1416 100.56C56.0882 99.0933 56.0482 98.3333 56.0216 98.28V98.16H51.9416H47.8216L46.7016 100.2C45.9282 101.587 45.5149 102.4 45.4616 102.64C45.3282 103.093 45.6482 103.427 46.4216 103.64C46.6349 103.693 46.8749 103.733 47.1416 103.76C47.5149 103.76 47.7416 103.853 47.8216 104.04C47.8482 104.173 47.7949 104.48 47.6616 104.96C47.5549 105.467 47.4482 105.773 47.3416 105.88L47.2216 106H46.7016C44.3282 105.867 41.9282 105.853 39.5016 105.96C38.9149 105.987 38.5816 105.92 38.5016 105.76C38.4482 105.68 38.4749 105.373 38.5816 104.84C38.7416 104.227 38.8882 103.893 39.0216 103.84C39.1016 103.813 39.3016 103.787 39.6216 103.76C41.3282 103.68 42.5549 103.107 43.3016 102.04C43.4616 101.827 45.7416 97.72 50.1416 89.72L56.8216 77.64C56.9282 77.56 57.0349 77.4933 57.1416 77.44ZM55.6616 90.44C55.4482 86.7067 55.3416 84.8267 55.3416 84.8V84.56L52.1816 90.24L49.0616 95.88L52.4616 95.92C54.7549 95.92 55.9016 95.9067 55.9016 95.88L55.6616 90.44ZM74.6281 78.8L74.7481 78.68H78.5481H82.3481L82.4681 78.8C82.5481 78.8533 82.6148 78.9467 82.6681 79.08L86.0281 88.6C88.2681 94.8667 89.3881 98.0133 89.3881 98.04C89.3881 98.0667 89.4148 98.0267 89.4681 97.92C89.5748 97.5733 90.2281 95 91.4281 90.2C92.7881 84.76 93.4415 81.9467 93.3881 81.76C93.3881 81.7333 93.3481 81.68 93.2681 81.6C92.9748 81.1467 92.1615 80.92 90.8281 80.92C90.4548 80.92 90.2281 80.8267 90.1481 80.64C90.1215 80.5333 90.1615 80.2267 90.2681 79.72C90.4015 79.2133 90.5215 78.9067 90.6281 78.8L90.7481 78.68H91.1881C92.7615 78.7867 94.8415 78.8133 97.4281 78.76L99.7481 78.68H100.068L100.188 78.8C100.295 78.9067 100.348 79 100.348 79.08L99.9881 80.68C99.8815 80.84 99.5615 80.92 99.0281 80.92C98.1481 80.9467 97.4015 81.1067 96.7881 81.4C96.3881 81.5867 96.0948 81.8533 95.9081 82.2C95.8281 82.3333 94.8281 86.2667 92.9081 94C90.9348 101.893 89.9481 105.8 89.9481 105.72C89.9215 105.773 89.8681 105.84 89.7881 105.92C89.7081 105.973 89.3748 106 88.7881 106H87.9081L87.7881 105.88C87.7081 105.827 86.3881 102.2 83.8281 95C81.1081 87.32 79.7748 83.5467 79.8281 83.68L79.6281 83.12L77.1881 92.76C75.5881 99.1867 74.7881 102.467 74.7881 102.6C74.7881 102.787 74.8015 102.893 74.8281 102.92C75.0415 103.48 75.8948 103.76 77.3881 103.76H77.7881L77.9481 103.88C78.0281 103.987 78.0681 104.093 78.0681 104.2C78.0681 104.627 77.9348 105.147 77.6681 105.76C77.5881 105.92 77.3481 105.987 76.9481 105.96C76.8415 105.96 76.6415 105.96 76.3481 105.96C73.0148 105.853 70.4015 105.867 68.5081 106H68.1481L68.0281 105.88C67.9215 105.773 67.8681 105.667 67.8681 105.56C67.8681 105.133 68.0015 104.613 68.2681 104C68.3215 103.84 68.5348 103.76 68.9081 103.76C70.1081 103.76 71.0148 103.56 71.6281 103.16C71.8948 103.027 72.1081 102.827 72.2681 102.56C72.3481 102.427 73.2815 98.8 75.0681 91.68C76.8281 84.56 77.6948 81 77.6681 81L76.0281 80.92C74.8815 80.92 74.2548 80.8267 74.1481 80.64C74.1215 80.56 74.1615 80.2533 74.2681 79.72C74.4015 79.2133 74.5215 78.9067 74.6281 78.8ZM117.155 77.84C117.875 77.76 118.608 77.7867 119.355 77.92C121.915 78.2933 123.901 79.56 125.315 81.72C125.795 82.4667 126.128 83.1467 126.315 83.76C126.795 85.04 127.048 86.4133 127.075 87.88C127.101 89.9333 126.755 92 126.035 94.08C125.048 97.04 123.408 99.68 121.115 102C119.035 104.053 116.795 105.467 114.395 106.24C110.928 107.387 107.941 107.053 105.435 105.24C105.061 104.973 104.715 104.68 104.395 104.36C102.208 102.173 101.261 99.16 101.555 95.32C101.741 92.9467 102.421 90.5733 103.595 88.2C105.301 84.8133 107.635 82.16 110.595 80.24C112.701 78.8533 114.888 78.0533 117.155 77.84ZM118.235 79.88C116.981 79.6933 115.701 79.9333 114.395 80.6C112.075 81.6933 110.195 83.7067 108.755 86.64C108.035 88.1067 107.421 89.8667 106.915 91.92C106.355 94.2667 106.075 96.24 106.075 97.84C106.075 99.4933 106.328 100.867 106.835 101.96C107.741 103.827 109.141 104.787 111.035 104.84C111.275 104.84 111.528 104.827 111.795 104.8C114.141 104.533 116.288 103.08 118.235 100.44C118.955 99.48 119.581 98.4133 120.115 97.24C121.395 94.3867 122.235 91.3867 122.635 88.24C122.741 87.2267 122.741 86.2 122.635 85.16C122.635 85.1067 122.635 85.0533 122.635 85C122.341 83.4 121.795 82.1733 120.995 81.32C120.275 80.52 119.355 80.04 118.235 79.88ZM135.019 78.8L135.139 78.68H135.659C138.005 78.7867 140.512 78.8133 143.179 78.76C145.045 78.7067 145.965 78.68 145.939 78.68H146.339L146.459 78.8C146.565 78.9067 146.619 79 146.619 79.08L146.259 80.68C145.912 80.84 145.405 80.92 144.739 80.92C143.592 80.9467 142.899 81 142.659 81.08L142.459 81.2L142.419 81.24C142.365 81.2933 141.632 84.12 140.219 89.72C138.805 95.3733 138.032 98.5867 137.899 99.36C137.659 101.093 137.899 102.4 138.619 103.28C139.499 104.427 140.912 104.853 142.859 104.56C143.285 104.48 143.699 104.373 144.099 104.24C146.872 103.387 148.819 101.293 149.939 97.96C149.992 97.8 150.699 95.08 152.059 89.8C153.339 84.6267 153.952 81.9467 153.899 81.76C153.899 81.7333 153.859 81.68 153.779 81.6C153.485 81.1467 152.672 80.92 151.339 80.92C150.965 80.92 150.739 80.8267 150.659 80.64C150.632 80.5333 150.672 80.2267 150.779 79.72C150.912 79.2133 151.032 78.9067 151.139 78.8L151.259 78.68H151.699C153.245 78.7867 155.299 78.8133 157.859 78.76L160.139 78.68H160.459L160.579 78.8C160.685 78.9067 160.739 79 160.739 79.08L160.379 80.68C160.272 80.84 159.952 80.92 159.419 80.92C158.539 80.9467 157.792 81.1067 157.179 81.4C156.779 81.5867 156.485 81.8533 156.299 82.2C156.192 82.36 155.525 84.9333 154.299 89.92C153.045 94.8533 152.365 97.4933 152.259 97.84C151.299 100.827 149.565 103.2 147.059 104.96C145.325 106.187 143.552 106.827 141.739 106.88C139.365 106.96 137.419 106.227 135.899 104.68C135.792 104.573 135.699 104.467 135.619 104.36C134.045 102.467 133.512 100.2 134.019 97.56C134.099 97.0533 134.792 94.2667 136.099 89.2C137.405 83.92 138.059 81.2533 138.059 81.2C138.059 81.12 138.032 81.08 137.979 81.08C137.819 81.0267 137.192 80.9733 136.099 80.92C135.165 80.92 134.645 80.8267 134.539 80.64C134.512 80.56 134.552 80.2533 134.659 79.72C134.792 79.2133 134.912 78.9067 135.019 78.8ZM164.745 78.8L164.865 78.68H171.305L177.785 78.72L178.345 78.8C180.105 79.0667 181.519 79.6667 182.585 80.6C183.652 81.4533 184.305 82.5467 184.545 83.88C184.652 84.6 184.625 85.32 184.465 86.04C184.012 87.9333 182.719 89.6 180.585 91.04C179.705 91.6 178.785 92.0533 177.825 92.4C177.612 92.5067 177.492 92.56 177.465 92.56L177.785 92.88C178.345 93.3333 178.825 93.9333 179.225 94.68C179.519 95.3733 179.679 96.0667 179.705 96.76C179.705 97.32 179.625 98.2667 179.465 99.6C179.332 100.933 179.265 101.973 179.265 102.72C179.265 103.36 179.292 103.773 179.345 103.96C179.505 104.547 179.919 104.893 180.585 105C180.932 105 181.212 104.907 181.425 104.72C181.825 104.453 182.199 103.72 182.545 102.52C182.652 102.12 182.799 101.893 182.985 101.84C183.092 101.813 183.359 101.8 183.785 101.8C184.345 101.8 184.679 101.867 184.785 102C184.892 102.133 184.865 102.427 184.705 102.88C184.039 104.853 182.999 106.12 181.585 106.68C181.399 106.76 181.212 106.813 181.025 106.84C180.839 106.867 180.505 106.88 180.025 106.88C177.279 106.747 175.519 105.88 174.745 104.28C174.532 103.88 174.412 103.36 174.385 102.72C174.385 102.213 174.399 101.893 174.425 101.76C174.559 101.147 174.745 100.32 174.985 99.28C175.439 97.4667 175.639 96.32 175.585 95.84C175.479 94.5867 174.919 93.7733 173.905 93.4L173.625 93.28H171.265H168.945L168.905 93.44C168.905 93.3867 168.479 95.0933 167.625 98.56C166.799 101.893 166.399 103.56 166.425 103.56C166.559 103.693 167.372 103.76 168.865 103.76H169.665L169.825 103.88C169.905 103.987 169.945 104.093 169.945 104.2C169.945 104.627 169.812 105.147 169.545 105.76C169.465 105.92 169.199 105.987 168.745 105.96C168.639 105.96 168.412 105.96 168.065 105.96C164.065 105.853 160.945 105.867 158.705 106H158.265L158.145 105.88C158.039 105.773 157.985 105.667 157.985 105.56C157.985 105.133 158.119 104.613 158.385 104C158.705 103.84 159.212 103.76 159.905 103.76C161.105 103.733 161.785 103.68 161.945 103.6C162.079 103.52 162.185 103.36 162.265 103.12C162.452 102.587 163.372 98.9867 165.025 92.32C166.865 84.96 167.785 81.2533 167.785 81.2C167.785 81.12 167.759 81.08 167.705 81.08C167.545 81.0267 166.919 80.9733 165.825 80.92C164.892 80.92 164.372 80.8267 164.265 80.64C164.239 80.56 164.279 80.2533 164.385 79.72C164.519 79.2133 164.639 78.9067 164.745 78.8ZM177.185 81C177.025 80.9733 176.212 80.9467 174.745 80.92C173.332 80.92 172.505 80.9467 172.265 81C172.132 81.0533 172.052 81.1067 172.025 81.16L169.425 91.4H171.745C173.559 91.3733 174.745 91.2933 175.305 91.16C176.852 90.8133 177.985 90.0533 178.705 88.88C179.052 88.2933 179.385 87.3333 179.705 86C179.945 85.0133 180.065 84.2533 180.065 83.72C180.065 83 179.852 82.4267 179.425 82C179.159 81.7333 178.919 81.56 178.705 81.48C178.359 81.2933 177.852 81.1333 177.185 81ZM193.886 78.8L194.006 78.68H194.606C197.353 78.8133 200.753 78.8267 204.806 78.72C205.766 78.6933 206.299 78.7733 206.406 78.96C206.433 79.04 206.393 79.3467 206.286 79.88C206.126 80.4133 206.019 80.72 205.966 80.8L205.846 80.92H204.246C202.513 80.9467 201.526 81.0667 201.286 81.28C201.206 81.3333 200.246 85.0667 198.406 92.48C196.566 99.84 195.646 103.56 195.646 103.64C195.646 103.693 195.726 103.72 195.886 103.72H200.126C201.539 103.56 202.806 103.08 203.926 102.28C204.539 101.853 205.033 101.373 205.406 100.84C206.233 99.7467 207.019 98.0933 207.766 95.88C208.033 95.1867 208.206 94.8133 208.286 94.76C208.366 94.7067 208.673 94.68 209.206 94.68C209.739 94.68 210.033 94.7067 210.086 94.76C210.246 94.8133 210.326 94.9333 210.326 95.12L206.646 105.8C206.593 105.907 206.206 105.96 205.486 105.96C204.713 105.987 201.846 106 196.886 106H187.406L187.246 105.88C187.166 105.747 187.126 105.64 187.126 105.56C187.126 105.133 187.259 104.613 187.526 104C187.846 103.84 188.353 103.76 189.046 103.76C190.246 103.733 190.926 103.68 191.086 103.6C191.219 103.52 191.326 103.36 191.406 103.12C191.593 102.587 192.513 98.9867 194.166 92.32C196.006 84.96 196.926 81.2533 196.926 81.2C196.926 81.12 196.899 81.08 196.846 81.08C196.686 81.0267 196.059 80.9733 194.966 80.92C194.033 80.92 193.513 80.8267 193.406 80.64C193.379 80.56 193.419 80.2533 193.526 79.72C193.659 79.2133 193.779 78.9067 193.886 78.8ZM226.444 77.88C227.244 77.7467 228.071 77.7733 228.924 77.96C229.724 78.12 230.431 78.4 231.044 78.8C231.364 79.0133 231.737 79.36 232.164 79.84C232.244 79.9733 232.297 80.0533 232.324 80.08L233.404 78.96C234.151 78.2133 234.537 77.84 234.564 77.84C234.564 77.8133 234.684 77.8 234.924 77.8C235.217 77.8 235.404 77.88 235.484 78.04C235.511 78.1467 235.137 79.7467 234.364 82.84C233.564 85.9867 233.137 87.5867 233.084 87.64L232.964 87.76H232.124C231.431 87.76 231.057 87.6933 231.004 87.56C230.977 87.4533 230.991 87.2267 231.044 86.88C231.471 84.08 231.124 82.12 230.004 81C229.391 80.36 228.511 80 227.364 79.92C226.057 79.8933 224.871 80.4133 223.804 81.48C223.244 82.04 222.817 82.6133 222.524 83.2C222.044 84.2133 221.817 85.1867 221.844 86.12C221.871 86.7333 221.977 87.2133 222.164 87.56C222.431 88.12 222.804 88.52 223.284 88.76C223.337 88.7867 224.191 89.0533 225.844 89.56C227.684 90.0933 228.777 90.4667 229.124 90.68C230.831 91.6667 231.711 93.3867 231.764 95.84C231.791 97.7867 231.244 99.7333 230.124 101.68C229.271 103.2 228.111 104.453 226.644 105.44C225.631 106.107 224.577 106.547 223.484 106.76C223.217 106.813 222.777 106.84 222.164 106.84C221.257 106.84 220.484 106.76 219.844 106.6C218.537 106.253 217.484 105.667 216.684 104.84L216.364 104.52L215.284 105.64L214.124 106.84L213.724 106.88H213.684C213.471 106.88 213.324 106.84 213.244 106.76C213.164 106.68 213.124 106.613 213.124 106.56C213.124 106.48 213.897 103.347 215.444 97.16C215.631 97 216.004 96.92 216.564 96.92H217.404L217.524 97.04C217.631 97.1467 217.644 97.4133 217.564 97.84C217.564 97.8933 217.551 97.96 217.524 98.04C217.204 99.6133 217.284 100.933 217.764 102C218.324 103.387 219.497 104.227 221.284 104.52C222.057 104.653 222.671 104.68 223.124 104.6C224.537 104.36 225.764 103.413 226.804 101.76C227.204 101.12 227.511 100.44 227.724 99.72C227.884 99.1333 227.964 98.48 227.964 97.76C227.964 97.0667 227.884 96.5333 227.724 96.16C227.457 95.4933 227.057 95.04 226.524 94.8C226.337 94.6933 225.471 94.4133 223.924 93.96C222.324 93.5067 221.377 93.2133 221.084 93.08C220.551 92.8133 220.057 92.4533 219.604 92C218.431 90.7733 217.924 89.1733 218.084 87.2C218.244 85.28 218.951 83.4533 220.204 81.72C220.871 80.8933 221.577 80.2 222.324 79.64C223.657 78.6267 225.031 78.04 226.444 77.88Z" fill="white"/>
<g clip-path="url(#clip0_0_1)">
<path d="M6.95316 37.5969C7.73245 46.2384 15.4268 53.1633 24.1018 53.0376L39.837 52.8049C41.1739 52.7852 42.1602 51.6898 42.0401 50.3581C41.92 49.0264 40.7391 47.9631 39.4021 47.9829L23.6669 48.2155C20.773 48.2575 17.9388 47.1657 15.6889 45.1398C13.438 43.1132 12.056 40.4086 11.7959 37.5253C11.5359 34.642 12.4272 31.9038 14.307 29.8161C16.186 27.7292 18.816 26.5566 21.7107 26.5138L42.2876 26.207C48.2946 26.1199 53.62 30.9149 54.1613 36.8981C54.2813 38.2298 55.4623 39.2931 56.7992 39.2733C58.1362 39.2536 59.1232 38.1573 59.0023 36.8265C58.6127 32.5058 56.4944 28.6135 53.3891 25.8175C50.2838 23.0215 46.1915 21.3217 41.8537 21.3858L21.2757 21.6901C17.0876 21.7511 13.2867 23.4439 10.5749 26.4556C7.86226 29.4683 6.5769 33.4245 6.95316 37.5969Z" fill="#FFF84D"/>
<path d="M58.023 25.9761L71.3377 25.7792C74.2324 25.7364 77.0666 26.8282 79.3174 28.8549C81.5673 30.8807 82.9503 33.5861 83.2103 36.4695C83.7499 42.4527 79.3016 47.393 73.2948 47.4818L53.9271 47.7682C51.0331 47.8101 48.1989 46.7183 45.9481 44.6916C43.6982 42.6658 42.3161 39.9612 42.0553 37.0788C41.9352 35.7471 40.7543 34.6838 39.4173 34.7035C38.0804 34.7233 37.0941 35.8187 37.2142 37.1503C37.9934 45.7901 45.6854 52.7176 54.3628 52.591L73.7313 52.3038C77.9185 52.2419 81.7195 50.5492 84.4313 47.5374C87.1423 44.5265 88.4285 40.5694 88.0514 36.3979C87.6761 32.2263 85.6806 28.3178 82.4345 25.3949C79.1874 22.4712 75.0917 20.8953 70.9037 20.958L57.5891 21.1549C56.2521 21.1747 55.2659 22.27 55.386 23.6017C55.5061 24.9334 56.6861 25.9959 58.023 25.9761Z" fill="#FFF84D"/>
</g>
<defs>
<clipPath id="clip0_0_1">
<rect width="69" height="64" fill="white" transform="translate(51.7263 83.8656) rotate(-138)"/>
</clipPath>
</defs>
</svg>
